<svg id="visual" viewBox="0 0 900 600" width="900" height="600" xmlns="http://www.w3.org/2000/svg" xmlns:xlink="http://www.w3.org/1999/xlink" version="1.1"><path d="M0 26L15 26.8C30 27.7 60 29.3 90 30.5C120 31.7 150 32.3 180 32.3C210 32.3 240 31.7 270 30.3C300 29 330 27 360 26.2C390 25.3 420 25.7 450 26.2C480 26.7 510 27.3 540 27C570 26.7 600 25.3 630 25.7C660 26 690 28 720 28.8C750 29.7 780 29.3 810 30.2C840 31 870 33 885 34L900 35" fill="none" stroke-linecap="round" stroke-linejoin="miter" stroke="#33A1E0" stroke-width="40"></path></svg>